<svg width="73" height="115" viewBox="0 0 73 115" fill="none" xmlns="http://www.w3.org/2000/svg">
<ellipse opacity="0.15" cx="35.6782" cy="93.403" rx="32.8296" ry="20.2749" transform="rotate(0.926985 35.6782 93.403)" fill="#252B5C"/>
<ellipse opacity="0.5" cx="35.6782" cy="93.4028" rx="15.1521" ry="9.46164" transform="rotate(0.926985 35.6782 93.4028)" fill="#FECB21"/>
<path d="M71.9032 39.9152C71.6453 55.8569 50.6756 80.1749 40.7435 90.8131C37.9745 93.7788 33.371 93.7043 30.6994 90.6505C21.1167 79.6966 0.944709 54.713 1.20265 38.7713C1.36504 28.7351 5.24517 19.1702 11.9895 12.1808C18.7338 5.19135 27.7897 1.34997 37.1652 1.50167C46.5407 1.65337 55.4677 5.78572 61.9823 12.9897C68.4969 20.1936 72.0656 29.879 71.9032 39.9152Z" fill="#FECB21"/>
<path opacity="0.25" d="M36.0621 69.6853C43.783 69.8102 51.2403 66.6858 56.7933 60.9994C62.3463 55.313 65.5401 47.5304 65.6723 39.3637C65.8044 31.1969 62.864 23.3151 57.4979 17.452C52.1318 11.5889 44.7795 8.22488 37.0585 8.09995C29.3375 7.97502 21.8803 11.0994 16.3273 16.7858C10.7743 22.4722 7.58044 30.2548 7.4483 38.4216C7.31616 46.5883 10.2566 54.4701 15.6227 60.3332C20.9888 66.1963 28.3411 69.5603 36.0621 69.6853V69.6853Z" fill="white"/>
<path d="M46.6506 34.9734C46.6477 36.2534 46.345 37.4242 45.7426 38.4858C45.1603 39.5273 44.2684 40.3697 43.0669 41.0128C41.8855 41.636 40.4348 41.9498 38.7148 41.9543L35.8048 41.962L35.7886 49.102L29.9086 49.1175L29.9567 27.9676L38.7466 27.9444C40.4466 27.9399 41.8859 28.2361 43.0646 28.833C44.2632 29.4298 45.1613 30.2574 45.7589 31.3158C46.3565 32.3742 46.6537 33.5934 46.6506 34.9734ZM38.1554 37.2759C39.8154 37.2715 40.6472 36.5093 40.6506 34.9893C40.6541 33.4493 39.8259 32.6815 38.1659 32.6859L35.8259 32.6921L35.8155 37.282L38.1554 37.2759Z" fill="#FECB21"/>
</svg>
